<svg width="58" height="57" viewBox="0 0 58 57" fill="none" xmlns="http://www.w3.org/2000/svg">
<path d="M9.77615 32.7896C9.35188 32.3653 9.01011 31.835 8.7862 31.2104C8.56228 30.5858 8.42086 29.9258 8.3855 29.2069C8.32657 27.9931 8.50335 26.897 8.92762 25.8835C9.3401 24.8818 9.95292 23.9626 10.7779 23.1376C11.98 21.9355 13.5474 20.9338 15.4801 20.156C17.4129 19.3781 19.546 18.8007 21.8677 18.4353C24.2129 18.07 26.5935 17.8814 29.033 17.8696C31.4725 17.8814 33.8531 18.07 36.1748 18.4353C38.4847 18.8125 40.606 19.3781 42.5034 20.1442C44.4126 20.922 45.98 21.9237 47.2057 23.1494C48.0071 23.9508 48.6317 24.8582 49.0559 25.8482C49.492 26.8499 49.7041 27.9577 49.6688 29.1716C49.657 30.6683 49.1973 31.8586 48.3253 32.7307C47.9953 33.0607 47.5946 33.3199 47.1585 33.4731C46.7107 33.6381 46.2275 33.6971 45.709 33.6028L39.1211 32.4832C38.6143 32.4007 38.1901 32.2828 37.8247 32.1296C37.4712 31.9882 37.1647 31.7996 36.9408 31.5757C36.658 31.2929 36.4576 30.9276 36.3516 30.4915C36.2337 30.0672 36.1748 29.5605 36.1748 28.9948L36.1394 27.1681C36.1394 26.9088 36.0452 26.6967 35.8566 26.5081C35.7623 26.4139 35.668 26.3431 35.5502 26.2724C35.4206 26.2135 35.3145 26.1782 35.2202 26.131C34.6192 25.9542 33.7471 25.8128 32.6157 25.7185C31.4725 25.636 30.2822 25.5771 29.0448 25.5653C27.7838 25.5771 26.5935 25.6125 25.4386 25.7067C24.3072 25.801 23.4469 25.9542 22.8341 26.1428C22.7516 26.1782 22.6455 26.2135 22.5276 26.2606C22.398 26.3196 22.2919 26.4021 22.1859 26.5081C21.9855 26.7085 21.903 26.9324 21.903 27.1917L21.8912 28.9712C21.8912 29.5605 21.8323 30.0672 21.7027 30.4797C21.5966 30.9158 21.4081 31.2693 21.1134 31.5639C20.8895 31.7879 20.6067 31.9764 20.2413 32.1296C19.876 32.2828 19.4517 32.4007 18.9567 32.495L12.2864 33.6263C11.7678 33.7206 11.3082 33.6853 10.8839 33.5203C10.4715 33.3435 10.1061 33.1196 9.77615 32.7896Z" stroke="#F24E4E" stroke-width="4" stroke-miterlimit="10"/>
</svg>
