<svg width="22" height="23" viewBox="0 0 22 23" fill="none" xmlns="http://www.w3.org/2000/svg">
<path d="M8.12002 8.62002V7.62002C7.56774 7.62002 7.12002 8.06774 7.12002 8.62002H8.12002ZM8.21565 8.62002H9.21565C9.21565 8.06774 8.76793 7.62002 8.21565 7.62002V8.62002ZM13.88 8.62002V7.62002C13.3277 7.62002 12.88 8.06774 12.88 8.62002H13.88ZM13.965 8.62002H14.965C14.965 8.06774 14.5173 7.62002 13.965 7.62002V8.62002ZM8.21565 8.6969V9.6969C8.76793 9.6969 9.21565 9.24918 9.21565 8.6969H8.21565ZM8.12002 8.6969H7.12002C7.12002 9.24918 7.56774 9.6969 8.12002 9.6969V8.6969ZM13.965 8.6969V9.6969C14.5173 9.6969 14.965 9.24918 14.965 8.6969H13.965ZM13.88 8.6969H12.88C12.88 9.24918 13.3277 9.6969 13.88 9.6969V8.6969ZM8.52226 13.8929C8.23157 13.4233 7.61525 13.2782 7.14565 13.5689C6.67605 13.8596 6.53101 14.4759 6.82169 14.9455L8.52226 13.8929ZM15.1784 14.9455C15.469 14.4759 15.324 13.8596 14.8544 13.5689C14.3848 13.2782 13.7685 13.4233 13.4778 13.8929L15.1784 14.9455ZM19.6 11.5C19.6 16.2497 15.7497 20.1 11 20.1V22.1C16.8542 22.1 21.6 17.3542 21.6 11.5H19.6ZM11 20.1C6.25037 20.1 2.40002 16.2497 2.40002 11.5H0.400024C0.400024 17.3542 5.14581 22.1 11 22.1V20.1ZM2.40002 11.5C2.40002 6.75037 6.25037 2.90002 11 2.90002V0.900024C5.14581 0.900024 0.400024 5.64581 0.400024 11.5H2.40002ZM11 2.90002C15.7497 2.90002 19.6 6.75037 19.6 11.5H21.6C21.6 5.64581 16.8542 0.900024 11 0.900024V2.90002ZM8.12002 9.62002H8.21565V7.62002H8.12002V9.62002ZM13.88 9.62002H13.965V7.62002H13.88V9.62002ZM7.21565 8.62002V8.6969H9.21565V8.62002H7.21565ZM8.21565 7.6969H8.12002V9.6969H8.21565V7.6969ZM9.12002 8.6969V8.62002H7.12002V8.6969H9.12002ZM12.965 8.62002V8.6969H14.965V8.62002H12.965ZM13.965 7.6969H13.88V9.6969H13.965V7.6969ZM14.88 8.6969V8.62002H12.88V8.6969H14.88ZM11 15.3C9.97025 15.3 9.05238 14.7493 8.52226 13.8929L6.82169 14.9455C7.69145 16.3506 9.23149 17.3 11 17.3V15.3ZM13.4778 13.8929C12.9477 14.7493 12.0298 15.3 11 15.3V17.3C12.7686 17.3 14.3086 16.3506 15.1784 14.9455L13.4778 13.8929Z" fill="white"/>
</svg>
