<svg width="18" height="18" viewBox="0 0 18 18" fill="none" xmlns="http://www.w3.org/2000/svg">
<path d="M15.3 14.625L4.04999 3.375M7.64999 7.83118C7.36992 8.13994 7.19999 8.54553 7.19999 8.98973C7.19999 9.95707 8.00587 10.7412 8.99999 10.7412C9.45834 10.7412 9.87669 10.5745 10.1945 10.3M15.3291 10.7412C15.9488 9.81362 16.2 9.0571 16.2 9.0571C16.2 9.0571 14.5615 3.825 8.99999 3.825C8.68776 3.825 8.38789 3.84149 8.09999 3.87262M13.05 13.0121C12.0169 13.6711 10.687 14.1371 8.99999 14.1096C3.50768 14.0197 1.79999 9.0571 1.79999 9.0571C1.79999 9.0571 2.59338 6.52356 4.94999 4.98249" stroke="#3481B9" stroke-opacity="0.73" stroke-width="1.2" stroke-linecap="round"/>
</svg>
