<svg width="12" height="12" viewBox="0 0 12 12" fill="none" xmlns="http://www.w3.org/2000/svg">
<path d="M3.73999 9.175L5.28999 10.375C5.48999 10.575 5.93999 10.675 6.23999 10.675H8.13999C8.73999 10.675 9.38999 10.225 9.53999 9.625L10.74 5.975C10.99 5.275 10.54 4.675 9.78999 4.675H7.78999C7.48999 4.675 7.23999 4.425 7.28999 4.075L7.53999 2.475C7.63999 2.025 7.33999 1.525 6.88999 1.375C6.48999 1.225 5.98999 1.425 5.78999 1.725L3.73999 4.775" stroke="white" stroke-miterlimit="10"/>
<path d="M1.19 9.175V4.275C1.19 3.575 1.49 3.325 2.19 3.325H2.69C3.39 3.325 3.69 3.575 3.69 4.275V9.175C3.69 9.875 3.39 10.125 2.69 10.125H2.19C1.49 10.125 1.19 9.875 1.19 9.175Z" stroke="white" stroke-linecap="round" stroke-linejoin="round"/>
</svg>
