<svg width="14" height="16" viewBox="0 0 14 16" fill="none" xmlns="http://www.w3.org/2000/svg">
<path d="M5.65 15.2H3.85C2.35883 15.2 1.15 13.9912 1.15 12.5V3.5C1.15 2.00883 2.35883 0.800003 3.85 0.800003H10.15C11.6412 0.800003 12.85 2.00883 12.85 3.5V5.75M9.7 4.4H3.85M7 7.1H3.85M5.65 9.8H3.85M8.35 10.025L9.39252 9.50374C10.1526 9.12368 11.0474 9.12368 11.8075 9.50374L12.85 10.025C12.85 10.025 12.85 11.6675 12.85 12.5338C12.85 13.4 12.0493 13.9848 10.6 14.9C9.15075 13.9848 8.35 13.2125 8.35 12.5338V10.025Z" stroke="#3481B9" stroke-width="1.5" stroke-linecap="round" stroke-linejoin="round"/>
</svg>
