<svg width="24" height="25" viewBox="0 0 24 25" fill="none" xmlns="http://www.w3.org/2000/svg">
<path d="M10.65 19.61V5.39C10.65 4.04 10.08 3.5 8.64 3.5H5.01C3.57 3.5 3 4.04 3 5.39V19.61C3 20.96 3.57 21.5 5.01 21.5H8.64C10.08 21.5 10.65 20.96 10.65 19.61Z" stroke="white" stroke-width="1.5" stroke-linecap="round" stroke-linejoin="round"/>
<path d="M21 19.61V5.39C21 4.04 20.43 3.5 18.99 3.5H15.36C13.93 3.5 13.35 4.04 13.35 5.39V19.61C13.35 20.96 13.92 21.5 15.36 21.5H18.99C20.43 21.5 21 20.96 21 19.61Z" stroke="white" stroke-width="1.5" stroke-linecap="round" stroke-linejoin="round"/>
</svg>
