<svg width="16" height="16" viewBox="0 0 16 16" fill="none" xmlns="http://www.w3.org/2000/svg">
<path d="M11.2001 8.00001H4.79998M11.2001 8.00001C12.9674 8.00001 14.4001 6.56732 14.4001 4.80001C14.4001 3.03269 12.9674 1.60001 11.2001 1.60001H4.79998C3.03262 1.60001 1.59992 3.03276 1.59998 4.80011C1.60003 6.56738 3.0327 8.00001 4.79998 8.00001M11.2001 8.00001C12.9674 8.00001 14.4001 9.43269 14.4001 11.2C14.4001 12.9673 12.9674 14.4 11.2001 14.4H4.79998C3.0327 14.4 1.60003 12.9674 1.59998 11.2001C1.59992 9.43276 3.03262 8.00001 4.79998 8.00001M11.5999 4.80001H7.59987M11.5999 11.2H7.59987M4.39987 11.2602V11.2M4.39987 4.80001V4.73985" stroke="#3481B9" stroke-width="1.5" stroke-linecap="round" stroke-linejoin="round"/>
</svg>
