<svg width="16" height="16" viewBox="0 0 16 16" fill="none" xmlns="http://www.w3.org/2000/svg">
<path d="M12.8 9.12381C13.6449 9.75507 14.4 11.3445 14.4 12.3238C14.4 12.6289 14.1774 12.8762 13.9028 12.8762H13.6M10.4 6.53632C10.9465 6.22015 11.3143 5.62921 11.3143 4.95238C11.3143 4.27555 10.9465 3.68461 10.4 3.36844M2.09716 12.8762H10.8552C11.1298 12.8762 11.3524 12.6289 11.3524 12.3238C11.3524 10.406 9.75018 8.8514 6.47617 8.8514C3.20215 8.8514 1.59998 10.406 1.59998 12.3238C1.59998 12.6289 1.82257 12.8762 2.09716 12.8762ZM8.30474 4.95238C8.30474 5.96227 7.48606 6.78095 6.47617 6.78095C5.46627 6.78095 4.64759 5.96227 4.64759 4.95238C4.64759 3.94249 5.46627 3.12381 6.47617 3.12381C7.48606 3.12381 8.30474 3.94249 8.30474 4.95238Z" stroke="#3481B9" stroke-width="1.4" stroke-linecap="round"/>
</svg>
